<?xml version="1.0" encoding="UTF-8"?>
<!DOCTYPE svg PUBLIC "-//W3C//DTD SVG 1.1//EN" "http://www.w3.org/Graphics/SVG/1.1/DTD/svg11.dtd">
<svg xmlns="http://www.w3.org/2000/svg" version="1.1" width="540px" height="533px" style="shape-rendering:geometricPrecision; text-rendering:geometricPrecision; image-rendering:optimizeQuality; fill-rule:evenodd; clip-rule:evenodd" xmlns:xlink="http://www.w3.org/1999/xlink">
<g><path style="opacity:1" fill="#e55c74" d="M 210.5,15.5 C 210.5,62.8333 210.5,110.167 210.5,157.5C 198.021,163.976 187.687,172.976 179.5,184.5C 192.059,158.813 188.392,135.646 168.5,115C 151.453,100.993 132.453,97.6599 111.5,105C 89.6147,114.901 77.9481,131.901 76.5,156C 77.3525,174.204 84.6859,189.037 98.5,200.5C 98.44,201.043 98.1067,201.376 97.5,201.5C 86.4384,198.039 75.1051,196.706 63.5,197.5C 50.2502,172.754 49.0835,147.42 60,121.5C 80.3766,85.8989 110.877,71.7322 151.5,79C 165.053,82.5232 176.886,89.0232 187,98.5C 187.333,70.5 187.667,42.5 188,14.5C 188.5,14 189,13.5 189.5,13C 195.833,12.3333 202.167,12.3333 208.5,13C 209.756,13.4169 210.423,14.2502 210.5,15.5 Z"/></g>
<g><path style="opacity:0.502" fill="#742f3b" d="M 210.5,15.5 C 211.167,62.5 211.833,109.5 212.5,156.5C 212.158,157.338 211.492,157.672 210.5,157.5C 210.5,110.167 210.5,62.8333 210.5,15.5 Z"/></g>
<g><path style="opacity:1" fill="#e86e55" d="M 446.5,193.5 C 403.167,193.5 359.833,193.5 316.5,193.5C 310.343,182.67 302.343,173.336 292.5,165.5C 293.338,165.158 293.672,164.492 293.5,163.5C 301.235,131.264 321.235,111.098 353.5,103C 396.084,96.7052 426.584,112.872 445,151.5C 450.043,164.836 451.376,178.503 449,192.5C 448.329,193.252 447.496,193.586 446.5,193.5 Z M 424.5,167.5 C 388.849,169.494 352.849,170.16 316.5,169.5C 324.569,142.774 342.569,128.107 370.5,125.5C 397.855,127.507 415.855,141.507 424.5,167.5 Z"/></g>
<g><path style="opacity:1" fill="#de1b13" d="M 291.5,164.5 C 291.5,165.167 291.833,165.5 292.5,165.5C 302.343,173.336 310.343,182.67 316.5,193.5C 316.328,194.492 316.662,195.158 317.5,195.5C 319.109,199.054 320.442,202.721 321.5,206.5C 324.174,219.668 325.174,233.001 324.5,246.5C 324.5,260.167 324.5,273.833 324.5,287.5C 315.672,290.248 307.672,294.582 300.5,300.5C 300.826,296.116 300.492,291.783 299.5,287.5C 287.329,298.752 272.995,305.418 256.5,307.5C 254.473,307.662 252.473,307.495 250.5,307C 244.669,297.336 237.002,289.502 227.5,283.5C 227.842,282.662 228.508,282.328 229.5,282.5C 247.22,286.714 263.554,283.714 278.5,273.5C 280.749,272.92 282.415,271.587 283.5,269.5C 307.187,240.504 305.854,212.671 279.5,186C 261.796,173.486 242.796,171.153 222.5,179C 195.013,194.148 185.18,216.981 193,247.5C 196.955,257.744 203.122,266.411 211.5,273.5C 211.5,273.833 211.5,274.167 211.5,274.5C 199.698,271.2 187.698,269.2 175.5,268.5C 170.484,259.117 167.484,249.117 166.5,238.5C 164.747,223.196 167.08,208.53 173.5,194.5C 174.674,193.486 175.34,192.153 175.5,190.5C 176.475,188.205 177.808,186.205 179.5,184.5C 187.687,172.976 198.021,163.976 210.5,157.5C 211.492,157.672 212.158,157.338 212.5,156.5C 240.274,145.278 266.607,147.945 291.5,164.5 Z"/></g>
<g><path style="opacity:0.251" fill="#28130e" d="M 293.5,163.5 C 293.672,164.492 293.338,165.158 292.5,165.5C 291.833,165.5 291.5,165.167 291.5,164.5C 292.167,164.167 292.833,163.833 293.5,163.5 Z"/></g>
<g><path style="opacity:0.502" fill="#77392c" d="M 424.5,167.5 C 425.404,168.209 425.737,169.209 425.5,170.5C 388.996,170.832 352.663,170.498 316.5,169.5C 352.849,170.16 388.849,169.494 424.5,167.5 Z"/></g>
<g><path style="opacity:0.502" fill="#77392c" d="M 316.5,193.5 C 359.833,193.5 403.167,193.5 446.5,193.5C 403.5,194.167 360.5,194.833 317.5,195.5C 316.662,195.158 316.328,194.492 316.5,193.5 Z"/></g>
<g><path style="opacity:0.816" fill="#8f3946" d="M 175.5,190.5 C 175.34,192.153 174.674,193.486 173.5,194.5C 171.427,196.58 169.093,198.246 166.5,199.5C 169.167,196.167 172.167,193.167 175.5,190.5 Z"/></g>
<g><path style="opacity:1" fill="#e15a72" d="M 173.5,194.5 C 167.08,208.53 164.747,223.196 166.5,238.5C 165.679,235.359 165.179,232.025 165,228.5C 154.129,233.785 142.629,236.118 130.5,235.5C 130.598,231.75 129.431,228.417 127,225.5C 122.343,218.678 116.843,212.678 110.5,207.5C 130.61,214.592 149.276,211.925 166.5,199.5C 169.093,198.246 171.427,196.58 173.5,194.5 Z"/></g>
<g><path style="opacity:1" fill="#5959a0" d="M 63.5,197.5 C 75.1051,196.706 86.4384,198.039 97.5,201.5C 98.1067,201.376 98.44,201.043 98.5,200.5C 102.535,202.848 106.535,205.182 110.5,207.5C 116.843,212.678 122.343,218.678 127,225.5C 129.431,228.417 130.598,231.75 130.5,235.5C 130.586,236.496 130.252,237.329 129.5,238C 125.082,239.806 120.749,241.806 116.5,244C 114.167,244.667 111.833,244.667 109.5,244C 95.4138,222.39 76.4138,216.723 52.5,227C 44.934,232.034 42.7674,238.867 46,247.5C 49.2508,251.422 53.0841,254.588 57.5,257C 73.3922,262.64 89.3922,267.973 105.5,273C 114.891,277.02 123.224,282.52 130.5,289.5C 122.259,297.397 115.593,306.397 110.5,316.5C 109.212,309.428 105.546,303.928 99.5,300C 96.1667,298.333 92.8333,296.667 89.5,295C 72.0204,290.715 55.0204,285.048 38.5,278C 18.8001,266.914 11.9668,250.414 18,228.5C 27.2502,209.615 42.4169,199.282 63.5,197.5 Z"/></g>
<g><path style="opacity:1" fill="#e46d54" d="M 321.5,206.5 C 340.476,234.711 365.809,242.378 397.5,229.5C 388.234,238.011 380.9,248.011 375.5,259.5C 371.5,259.5 367.5,259.5 363.5,259.5C 357.497,259.541 351.663,258.541 346,256.5C 338.357,254.017 331.19,250.683 324.5,246.5C 325.174,233.001 324.174,219.668 321.5,206.5 Z"/></g>
<g><path style="opacity:1" fill="#f2bd75" d="M 410.5,412.5 C 409.222,407.748 408.555,402.748 408.5,397.5C 408.507,392.449 409.173,387.783 410.5,383.5C 426.724,396.969 445.057,400.803 465.5,395C 486.992,387.187 499.159,372.021 502,349.5C 478.046,370.191 450.879,375.691 420.5,366C 416.493,364.663 412.827,362.83 409.5,360.5C 409.5,359.833 409.167,359.5 408.5,359.5C 409.075,346.713 407.075,334.38 402.5,322.5C 420.924,345.357 443.924,351.524 471.5,341C 475.194,338.822 478.861,336.655 482.5,334.5C 485.833,333.167 488.167,330.833 489.5,327.5C 507.091,304.81 507.924,281.477 492,257.5C 468.392,232.695 442.225,229.528 413.5,248C 395.263,264.542 389.263,284.709 395.5,308.5C 395.649,309.552 395.483,310.552 395,311.5C 388.073,302.471 379.573,295.471 369.5,290.5C 369.5,287.833 369.5,285.167 369.5,282.5C 369.776,275.066 371.443,268.066 374.5,261.5C 375.338,261.158 375.672,260.492 375.5,259.5C 380.9,248.011 388.234,238.011 397.5,229.5C 421.792,211.052 448.459,206.885 477.5,217C 505.383,229.254 521.883,250.42 527,280.5C 527.667,304.833 527.667,329.167 527,353.5C 518.103,396.394 491.77,419.394 448,422.5C 434.575,422.187 422.075,418.854 410.5,412.5 Z"/></g>
<g><path style="opacity:0.502" fill="#6b3829" d="M 363.5,259.5 C 367.5,259.5 371.5,259.5 375.5,259.5C 375.672,260.492 375.338,261.158 374.5,261.5C 370.833,260.833 367.167,260.167 363.5,259.5 Z"/></g>
<g><path style="opacity:1" fill="#743c8c" d="M 175.5,268.5 C 187.698,269.2 199.698,271.2 211.5,274.5C 212.78,275.931 214.447,276.598 216.5,276.5C 218.5,277.5 220.5,278.5 222.5,279.5C 223.782,281.18 225.449,282.513 227.5,283.5C 237.002,289.502 244.669,297.336 250.5,307C 252.473,307.495 254.473,307.662 256.5,307.5C 255.282,308.161 253.949,308.828 252.5,309.5C 257.157,317.972 260.324,326.972 262,336.5C 262.667,365.5 262.667,394.5 262,423.5C 261.5,424.667 260.667,425.5 259.5,426C 253.5,426.667 247.5,426.667 241.5,426C 240.667,425.167 239.833,424.333 239,423.5C 238.667,417.833 238.333,412.167 238,406.5C 213.219,428.571 185.052,434.071 153.5,423C 125.705,410.702 109.371,389.535 104.5,359.5C 103.582,346.878 104.915,334.544 108.5,322.5C 108.875,320.302 109.542,318.302 110.5,316.5C 115.593,306.397 122.259,297.397 130.5,289.5C 143.608,278.446 158.608,271.446 175.5,268.5 Z M 225.5,384.5 C 222.5,386.833 219.833,389.5 217.5,392.5C 189.942,410.035 164.442,407.369 141,384.5C 124.333,360.833 124.333,337.167 141,313.5C 166.574,288.731 193.408,287.231 221.5,309C 242.525,333.15 243.858,358.316 225.5,384.5 Z"/></g>
<g><path style="opacity:0.816" fill="#87170f" d="M 283.5,269.5 C 282.415,271.587 280.749,272.92 278.5,273.5C 279.585,271.413 281.251,270.08 283.5,269.5 Z"/></g>
<g><path style="opacity:1" fill="#7d1f25" d="M 211.5,273.5 C 213.434,274.11 215.101,275.11 216.5,276.5C 214.447,276.598 212.78,275.931 211.5,274.5C 211.5,274.167 211.5,273.833 211.5,273.5 Z"/></g>
<g><path style="opacity:0.816" fill="#85202e" d="M 222.5,279.5 C 224.987,280.323 227.321,281.323 229.5,282.5C 228.508,282.328 227.842,282.662 227.5,283.5C 225.449,282.513 223.782,281.18 222.5,279.5 Z"/></g>
<g><path style="opacity:1" fill="#ef9260" d="M 367.5,289.5 C 367.842,290.338 368.508,290.672 369.5,290.5C 379.573,295.471 388.073,302.471 395,311.5C 395.483,310.552 395.649,309.552 395.5,308.5C 397.801,313.101 400.134,317.768 402.5,322.5C 407.075,334.38 409.075,346.713 408.5,359.5C 407.501,410.664 407.168,461.997 407.5,513.5C 407.047,514.458 406.381,515.292 405.5,516C 399.5,516.667 393.5,516.667 387.5,516C 386.333,515.5 385.5,514.667 385,513.5C 384.667,457.833 384.333,402.167 384,346.5C 380.841,327.006 369.674,314.84 350.5,310C 324.759,308.115 308.593,319.615 302,344.5C 301.667,376.5 301.333,408.5 301,440.5C 300.5,441.667 299.667,442.5 298.5,443C 292.5,443.667 286.5,443.667 280.5,443C 279.584,442.626 278.75,442.126 278,441.5C 277.333,407.5 277.333,373.5 278,339.5C 280.887,323.712 288.387,310.712 300.5,300.5C 307.672,294.582 315.672,290.248 324.5,287.5C 339.047,283.435 353.38,284.101 367.5,289.5 Z"/></g>
<g><path style="opacity:0.502" fill="#604a2e" d="M 369.5,282.5 C 369.5,285.167 369.5,287.833 369.5,290.5C 368.508,290.672 367.842,290.338 367.5,289.5C 368.167,287.167 368.833,284.833 369.5,282.5 Z"/></g>
<g><path style="opacity:1" fill="#58589f" d="M 108.5,322.5 C 104.915,334.544 103.582,346.878 104.5,359.5C 68.6214,371.3 38.4547,362.966 14,334.5C 11.4675,331.148 9.63413,327.481 8.5,323.5C 8.40616,321.088 9.40616,319.255 11.5,318C 16.1667,315.667 20.8333,313.333 25.5,311C 27.1667,310.333 28.8333,310.333 30.5,311C 36.1124,317.946 42.4457,324.279 49.5,330C 66.4243,339.509 83.4243,339.842 100.5,331C 103.399,328.271 106.066,325.438 108.5,322.5 Z"/></g>
<g><path style="opacity:0.816" fill="#8b6d46" d="M 489.5,327.5 C 488.167,330.833 485.833,333.167 482.5,334.5C 484.5,331.833 486.833,329.5 489.5,327.5 Z"/></g>
<g><path style="opacity:0.816" fill="#422550" d="M 225.5,384.5 C 223.833,388.167 221.167,390.833 217.5,392.5C 219.833,389.5 222.5,386.833 225.5,384.5 Z"/></g>
<g><path style="opacity:0.753" fill="#b8714b" d="M 408.5,359.5 C 409.167,359.5 409.5,359.833 409.5,360.5C 408.835,363.984 408.501,367.651 408.5,371.5C 408.572,375.756 409.239,379.756 410.5,383.5C 409.173,387.783 408.507,392.449 408.5,397.5C 408.555,402.748 409.222,407.748 410.5,412.5C 408.835,445.988 407.835,479.654 407.5,513.5C 407.168,461.997 407.501,410.664 408.5,359.5 Z"/></g>
</svg>
